PathFileType	4	(X/Y/Z)	18_2_rein_50_p0_0-438.trc
DataRate	CameraRate	NumFrames	NumMarkers	Units	OrigDataRate	OrigDataStartFrame	OrigNumFrames
60.0	60.0	5	27	m	60.0	164	439
Frame#	Time	RHip			RKnee			RAnkle			RBigToe			RSmallToe			RHeel			LHip			LKnee			LAnkle			LBigToe			LSmallToe			LHeel			Neck			Head			Nose			RShoulder			RElbow			RWrist			RThumb			RIndex			RPinky			LShoulder			LElbow			LWrist			LThumb			LIndex			LPinky			
		X1	Y1	Z1	X2	Y2	Z2	X3	Y3	Z3	X4	Y4	Z4	X5	Y5	Z5	X6	Y6	Z6	X7	Y7	Z7	X8	Y8	Z8	X9	Y9	Z9	X10	Y10	Z10	X11	Y11	Z11	X12	Y12	Z12	X13	Y13	Z13	X14	Y14	Z14	X15	Y15	Z15	X16	Y16	Z16	X17	Y17	Z17	X18	Y18	Z18	X19	Y19	Z19	X20	Y20	Z20	X21	Y21	Z21	X22	Y22	Z22	X23	Y23	Z23	X24	Y24	Z24	X25	Y25	Z25	X26	Y26	Z26	X27	Y27	Z27	
164	2.7333333333333334	0.2515399495591986	0.42535647589931885	1.218247315623609	0.2330755936447893	0.5528684197404512	1.6437963302954661	0.22896704022874664	0.6057971777211417	2.023097642344744	0.22057636768405872	0.41212428831277254	2.048364539103546	0.27149666629297786	0.44009725217384293	2.0501363888491424	0.21480331264489336	0.6828259673230622	2.088691464133052	0.038949007199358635	0.4363983175570022	1.2125076074041101	0.03761043173930397	0.5120148095989033	1.639024337379936	0.036600340773875785	0.5721007242473145	2.0312913720506227	0.08733016117276027	0.4356687753117254	2.064189006831108	0.010463563805465549	0.42747555282556543	2.0538073556940057	0.0386208742981201	0.6114937959021305	2.0632210747313753	0.16274774692534225	0.3520832655857876	0.7029663916287522	0.18129202928675678	0.2857094322231002	0.46613356899296055	0.16272622260087355	0.20595123749018535	0.5851850363276997	0.3153547273487577	0.3408072134063484	0.7961427837918167	0.3776530283621175	0.4337099990554984	1.0636090169334258	0.37403171530189716	0.4314040036650428	1.301821164650919	0.305939157335485	0.3744228358124257	1.3953281004152918	0.32018015633198915	0.3879454173776899	1.4357837975572818	0.3389504047633818	0.41277858154556335	1.4285922377854046	0.014649320536945943	0.3702017161582133	0.7774797561177312	-0.058615918361772955	0.40500154046098535	1.0311050153552006	-0.05524263056126979	0.4064905284535606	1.2750372115109296	0.0010987010384418893	0.37740909407292966	1.3682969873254562	-0.01046486140380911	0.37119445902877557	1.3947910265148056	-0.06771281514662178	0.44805413217930523	1.4046133569939154
165	2.75	0.25221634493662476	0.42784701792155516	1.2227061163645483	0.23305892515025795	0.5529312536331988	1.6437986357366627	0.2289324057270083	0.6056755398429576	2.023138435062748	0.21994531602267994	0.39698315845338883	2.040937617281432	0.2715080611575679	0.43974173986294784	2.0499046626142556	0.21477908663375414	0.6827071127766575	2.089168013804434	0.03890865010445866	0.4364313212012925	1.2125166858855505	0.036643180816174604	0.5134096427438258	1.6431711755388023	0.03657976602879913	0.5721710498605118	2.03129133633698	0.08736876791184409	0.4351770312412829	2.06400533560831	0.010541098627658186	0.42716612729871883	2.0537319305737225	0.0385428276240101	0.6116331362527014	2.0632945252565085	0.16273679168520355	0.35205408039922725	0.7030030930418402	0.18130380180991895	0.2857817426080698	0.4661084392054534	0.16271669225988253	0.20581268667665845	0.5851967469531172	0.31084224599571125	0.3405851196809087	0.7923581639599716	0.37763720013837404	0.4337444140631288	1.063591068376317	0.3694470701211491	0.42001980749727064	1.3033245404058473	0.30584998479014847	0.3743494071592682	1.395188878785514	0.32007242981764505	0.3878364937490667	1.4357271915650698	0.3388222952503275	0.4127534613148508	1.4287794747515767	0.01458154422807399	0.3703206538602303	0.7775995021273044	-0.05841905299379836	0.4073369825993793	1.0355432167685312	-0.054951296255761006	0.40917816600534196	1.2797688869645405	0.001146052321783835	0.3777478643494706	1.3684274198893644	-0.009822974215645815	0.37366033158570033	1.3998048322075813	-0.06728424268714975	0.45088186878651276	1.4091975254572477
166	2.7666666666666666	0.25080831836035694	0.4228264336286663	1.213689083123599	0.23220270794580533	0.5496697394271218	1.6383258082716858	0.22997326008430746	0.604187147078029	2.0183547018724344	0.22471807550019168	0.39772259591751025	2.041036466235741	0.27149516040230404	0.43998601934625997	2.0499851351492464	0.21589926260521017	0.6813267413201756	2.0836274535974924	0.038910326903019536	0.43667037175900897	1.2124164455755364	0.0365867062912609	0.5132991508053927	1.6428551618947467	0.0365762056358923	0.5720994145344233	2.0312720458759976	0.08740454823668461	0.43509720816759795	2.0639567729087642	0.020478799378928127	0.4146876399933431	2.0475661319211604	0.038548445219356554	0.611613286810392	2.063343783217354	0.16275016216590432	0.3520625694637531	0.7030027190035855	0.1812906497285178	0.2857691718173127	0.46612796973717313	0.16272574774536716	0.20590475139305428	0.5851739840349353	0.31087891044256655	0.3406218826514817	0.7922828397839558	0.3776241152313682	0.4337422356502843	1.0635347601302505	0.3740893645283111	0.43138816082440795	1.3018649676708096	0.3066283985115491	0.3734553207710173	1.3913091040499843	0.3202036648824555	0.3880690647504473	1.4357729441040326	0.33895567493873147	0.41293532680220685	1.4287251786052	0.014652186372860813	0.37038930806868436	0.7775869421289439	-0.05863586787076663	0.40507024067228037	1.03148282749436	-0.0604078464809161	0.4201762456471456	1.278355947202951	0.0011436832074034776	0.37757465691862296	1.368290581777547	-0.01048014580107121	0.37107952641474345	1.3946782350317766	-0.06781263016583765	0.44830365147059265	1.4046682997400077
167	2.783333333333333	0.25085733622692324	0.42296137762479535	1.2135648956855896	0.23215412851248604	0.5496845652108029	1.6384016294772084	0.22894124283056178	0.6058343506398474	2.0232718403409313	0.22468572271749182	0.3975907949077995	2.041193384376228	0.2715654871946007	0.4399087951301724	2.050172413429992	0.2147902412507954	0.6828293553827058	2.0893699927092375	0.03822840726596442	0.43763966648143415	1.2162053200932776	0.036594393025571256	0.5132700454176591	1.6427707690934457	0.03658682436762476	0.5721317694436819	2.0313210755207183	0.08741147655822731	0.43496013758143615	2.0639812944742904	0.020541909477427452	0.4148253051915351	2.047833046141695	0.03854251498379416	0.6116330038218084	2.0634597095943166	0.16274973173272458	0.3520695677340018	0.702995961876223	0.18129394314721137	0.2856662245527681	0.46614271595902074	0.16275097020660276	0.20582806836342374	0.5852054107996548	0.3110783292498581	0.34011736803089876	0.7885382603022357	0.3776523019524028	0.43380977763108003	1.063599167014856	0.37002553335824134	0.41879413181258207	1.2989613222156047	0.3065022053458738	0.37283597517309697	1.3910780576683004	0.32003183483187514	0.38737273452104504	1.4355000319455908	0.3387649975550497	0.412389193305506	1.4287091029688836	0.01422247900228016	0.3712887632748179	0.7807965935161681	-0.05920250635657158	0.40593785821031125	1.0351700260064642	-0.053261308208498705	0.4194503520893067	1.2780078972966564	0.0011391007511077915	0.3777446162154052	1.368354830579069	-0.010495490179982563	0.3710484644179257	1.3946865198846599	-0.06779816053219018	0.44819820815429456	1.4046767977700079
168	2.8	0.25055513567996135	0.4241917427612429	1.209861542157281	0.23293989883328062	0.547729603502777	1.6339798752038015	0.22882081967650597	0.6051692763256951	2.023260784363352	0.21568428249583002	0.4118963062716101	2.0482064279763192	0.2712276926314295	0.4407242360938608	2.050159574798052	0.21199020670143193	0.6706787957125657	2.0881793179287835	0.03804120107246304	0.4389163696523552	1.2124378835016885	0.03661485401825286	0.5132786108046217	1.642719854140445	0.03656668429038761	0.5722794629905079	2.031259431674756	0.08457591446550562	0.44574363563690417	2.069610453224155	0.01285445387980047	0.44070374879091573	2.0605043279158948	0.042816698609037925	0.6157694616025716	2.064971354691271	0.16274979754110994	0.3519917904418324	0.7029737371227569	0.18124750307775275	0.2856063767862728	0.46615698062466354	0.1627881265188187	0.205774851672742	0.5853354680655526	0.3110183275209466	0.34001016974688775	0.7883956866467666	0.3776196928582121	0.4337947499045192	1.0635755345774385	0.3695523599118189	0.4200735002092306	1.3038468523204014	0.3058194051144934	0.37439168509182025	1.3955252627315091	0.32006031649212885	0.3880085637531238	1.4359354303990421	0.33874263834287754	0.41262426287196563	1.4291765765493158	0.014769333508563522	0.3700697358519077	0.7774067108332773	-0.05863552289918234	0.4052545302068986	1.030628738337571	-0.05844480729075657	0.4331471269701409	1.2811998165245682	0.0005169897581742708	0.3736552706890709	1.3670848928174706	-0.013872143108636135	0.3679367335587976	1.3973762652813813	-0.06827544520943511	0.4452078584156174	1.3999681967388014
